<?xml version="1.0" standalone="no"?>
<!DOCTYPE svg PUBLIC "-//W3C//DTD SVG 1.1//EN" "http://www.w3.org/Graphics/SVG/1.1/DTD/svg11.dtd" >
<!--
2013-9-30: Created.
-->
<svg>
<metadata>
Created by iconfont
</metadata>
<defs>

<font id="iconfont" horiz-adv-x="1024" >
  <font-face
    font-family="iconfont"
    font-weight="500"
    font-stretch="normal"
    units-per-em="1024"
    ascent="896"
    descent="-128"
  />
    <missing-glyph />
    
    <glyph glyph-name="x" unicode="x" horiz-adv-x="1001"
d="M281 543q-27 -1 -53 -1h-83q-18 0 -36.5 -6t-32.5 -18.5t-23 -32t-9 -45.5v-76h912v41q0 16 -0.5 30t-0.5 18q0 13 -5 29t-17 29.5t-31.5 22.5t-49.5 9h-133v-97h-438v97zM955 310v-52q0 -23 0.5 -52t0.5 -58t-10.5 -47.5t-26 -30t-33 -16t-31.5 -4.5q-14 -1 -29.5 -0.5
t-29.5 0.5h-32l-45 128h-439l-44 -128h-29h-34q-20 0 -45 1q-25 0 -41 9.5t-25.5 23t-13.5 29.5t-4 30v167h911zM163 247q-12 0 -21 -8.5t-9 -21.5t9 -21.5t21 -8.5q13 0 22 8.5t9 21.5t-9 21.5t-22 8.5zM316 123q-8 -26 -14 -48q-5 -19 -10.5 -37t-7.5 -25t-3 -15t1 -14.5
t9.5 -10.5t21.5 -4h37h67h81h80h64h36q23 0 34 12t2 38q-5 13 -9.5 30.5t-9.5 34.5q-5 19 -11 39h-368zM336 498v228q0 11 2.5 23t10 21.5t20.5 15.5t34 6h188q31 0 51.5 -14.5t20.5 -52.5v-227h-327z" />
    

    
    <glyph glyph-name="toPay" unicode="&#58884;" d="M916.528 266.72H624.432c-46.096 0-83.472 39.184-83.472 87.568v43.76c0 48.368 37.376 87.568 83.472 87.568h292.096c46.096 0 83.472-39.2 83.472-87.568v-43.76c0-48.384-37.376-87.568-83.472-87.568z m41.744 131.328c0 24.192-18.672 43.776-41.728 43.776H624.432c-23.04 0-41.712-19.6-41.712-43.776v-43.76c0-24.192 18.672-43.792 41.712-43.792h292.096c23.04 0 41.728 19.616 41.728 43.792v43.76z m-62.608-43.776c-11.52 0-20.864 9.792-20.864 21.888 0 12.08 9.344 21.888 20.864 21.888s20.864-9.808 20.864-21.888c0-12.096-9.344-21.888-20.864-21.888z m-469.44-43.792c5.76 0 10.432-4.896 10.432-10.944v-21.888c0-6.032-4.672-10.944-10.432-10.944h-93.888v-54.72c0-6.048-4.672-10.96-10.432-10.96h-20.864c-5.76 0-10.432 4.912-10.432 10.96v54.72h-93.888c-5.76 0-10.432 4.912-10.432 10.944v21.888c0 6.048 4.672 10.944 10.432 10.944h93.888v43.792h-93.888c-5.76 0-10.432 4.896-10.432 10.944v21.888c0 6.048 4.672 10.944 10.432 10.944h93.888l-104.32 175.12h41.728l83.456-140.096 83.456 140.096h41.728L332.32 398.048h93.888c5.76 0 10.432-4.896 10.432-10.944v-21.888c0-6.048-4.672-10.944-10.432-10.944H332.32v-43.792h93.904z m448.592 394.032c0 24.176-18.688 43.776-41.728 43.776H123.696c-23.04 0-41.728-19.6-41.728-43.776v-656.688c0-24.192 18.672-43.776 41.728-43.776h709.392c23.024 0 41.712 19.6 41.712 43.776v131.344h41.712v-131.344c0-48.352-37.344-87.568-83.456-87.568H123.696c-46.096 0-83.456 39.2-83.456 87.568V704.512c0 48.352 37.36 87.568 83.456 87.568h709.376c46.112 0 83.456-39.2 83.456-87.568v-131.344h-41.712v131.344z m0 0"  horiz-adv-x="1024" />

    
    <glyph glyph-name="sending" unicode="&#58885;" d="M255.2-32.01599999999996c66.592 0 120.704 54.848 120.704 122.336 0 4.768-0.24 9.552-0.768 14.16h208.784c2.752-1.408 5.744-2.16 8.992-2.16h66.688c6.864-60.96 58.064-108.448 120-108.448 62 0 113.216 47.472 120.112 108.448h66.032c5.328 0 10.4 2.144 14.176 5.952 3.744 3.792 5.856 8.96 5.856 14.352V419.568c0 3.728-1.008 7.424-2.912 10.608l-107.12 177.248c-25.264 40.56-62.624 60.976-111.104 60.976h-152.16c-3.408 74.528-64 131.632-138.352 131.632H177.264c-76.528 0-139.024-60.64-139.024-138.16v-446.8c0.048-56.32 41.808-103.632 97.024-109.936a128.56 128.56 0 0 1-0.816-14.784c0.032-67.568 54.064-122.32 120.752-122.368m0 204.128c44.432 0 80.672-36.704 80.672-81.776 0-45.056-36.256-81.76-80.672-81.76-44.496 0-80.736 36.704-80.736 81.76 0 45.072 36.24 81.776 80.736 81.776m524.4 25.952c44.608-0.048 80.72-36.672 80.8-81.856-0.08-45.136-36.24-81.696-80.8-81.728-44.512 0.064-80.624 36.624-80.704 81.728 0.08 45.152 36.128 81.744 80.704 81.856m0 40.56c-57.616 0-105.92-41.104-117.872-95.872a19.28 19.28 0 0 1-2.768 0.192h-46.032l-0.256 484.896h151.952c34.8 0 59.28-13.312 77.056-41.808l104.016-172.16v-270.928h-48.16c-12.048 54.72-60.384 95.68-117.936 95.68m-207.056-93.584H363.152c-20.448 41.392-62.24 67.584-107.952 67.632-45.744-0.032-87.552-26.208-108.016-67.632-38.064 0.144-68.864 31.424-68.912 70V661.856c0 55.168 44.608 97.584 99.008 97.584h296.848c54.4 0 98.416-42.416 98.416-97.584v-516.816z m163.104 249.648h127.824c7.136 0 13.744 3.872 17.344 10.144a20.448 20.448 0 0 1 0 20.272 20 20 0 0 1-17.344 10.176h-107.76V544.48c0 11.2-8.976 20.288-20.048 20.288-11.04 0-20-9.088-20-20.288v-129.472c-0.032-5.392 2.064-10.544 5.824-14.368 3.744-3.84 8.848-5.952 14.16-5.952"  horiz-adv-x="1024" />

    
    <glyph glyph-name="spellList" unicode="&#58886;" d="M820.88 741.744a48.192 48.192 0 0 0 34.528-14.352c9.216-9.12 14.368-21.6 14.368-34.576v-617.696a49.024 49.024 0 0 0-48.944-48.944H203.2a49.04 49.04 0 0 0-48.992 48.944V692.816A49.04 49.04 0 0 0 203.2 741.744h617.68z m0 61.424H203.2a110.4 110.4 0 0 1-110.336-110.336v-617.696a110.304 110.304 0 0 1 110.336-110.288h617.648a110.336 110.336 0 0 1 110.32 110.288V692.816a110.304 110.304 0 0 1-110.288 110.288v0.064zM512 347.44000000000005a252.16 252.16 0 0 0-179.456 74.336 252.08 252.08 0 0 0-74.368 179.52 30.72 30.72 0 0 0 61.424 0c0.128-106.224 86.16-192.288 192.336-192.448 106.288 0.112 192.416 86.24 192.512 192.496a30.72 30.72 0 0 0 61.376 0 252.16 252.16 0 0 0-74.336-179.52 252.272 252.272 0 0 0-179.536-74.336l0.048-0.048z m0 0"  horiz-adv-x="1024" />

    
    <glyph glyph-name="edit" unicode="&#58887;" d="M831.168 440.672c-14.128 0-14.624-8.784-14.624-22.864v-338.4c0-33.584-22.784-75.184-67.664-67.68H230.016c-31.728-22.528-90.24 34.112-90.24 67.68v541.44c0 33.68 43.056 57.696 76.688 57.696l284.256 9.984c14.128 0 26.944 0.464 26.944 14.592 0 14.144-11.376 24.544-25.52 24.544H216.464c-67.136 0-121.792-51.312-121.792-118.624v-531.104c0-67.264 54.656-111.28 121.792-111.28h530.48c67.216 0 108.768 44.016 108.768 111.28V415.136c0 14.08-10.432 25.536-24.544 25.536z m76.064 252.784l-86.544 86.512c-28.432 28.512-78.448 28.512-106.912 0l-70.656-83.056-376.624-360.576-24.832-216.048 11.952-10.432 210.48 28.64 360.128 377.12 83.008 67.776c29.472 29.488 29.472 80.544 0 110.064zM297.696 169.664l22.544 112.8 90.24-112.8-112.784-22.544v22.544z m157.92 22.576l-135.36 135.344 338.384 338.384 135.36-135.344-338.384-338.384z m416 429.824l-50.176-50.16-122.192 122.176 50.144 50.208c4.768 4.736 11.056 7.328 17.824 7.328s13.12-2.592 17.824-7.328l86.512-86.48c9.872-9.856 9.872-25.856 0.064-35.744z m0 0"  horiz-adv-x="1024" />

    
    <glyph glyph-name="order" unicode="&#58888;" d="M753.776 382.20799999999997H270.24c-9.072 0-16.416-7.312-16.416-16.352 0-9.008 7.344-16.336 16.416-16.336h483.552c9.056 0 16.432 7.328 16.432 16.336 0 9.04-7.376 16.352-16.448 16.352z m0-151.088H270.24c-9.072 0-16.416-7.328-16.416-16.336 0-9.04 7.344-16.336 16.416-16.336h483.552c9.056 0 16.432 7.296 16.432 16.336 0 9.008-7.376 16.336-16.448 16.336zM423.392 711.8240000000001h177.2c24.496 0 44.368 19.728 44.368 44.096s-19.872 44.112-44.368 44.112H423.392a44.24 44.24 0 0 1-44.352-44.112 44.24 44.24 0 0 1 44.352-44.096z m330.384-178.528H270.24c-9.072 0-16.416-7.328-16.416-16.352 0-9.008 7.344-16.336 16.416-16.336h483.552c9.056 0 16.432 7.328 16.432 16.336 0 9.024-7.376 16.352-16.448 16.352z m149.072 198.4c-17.28 22.832-40.688 35.392-65.904 35.392l-113.792-0.048a16.496 16.496 0 0 1-15.536-16.4c0-8.752 6.88-15.872 15.536-16.4v-0.08h113.776c14.56 0 28.592-7.904 39.472-22.272 11.904-15.76 18.464-36.976 18.464-59.712v-569.264c0-22.752-6.56-43.968-18.464-59.712-10.88-14.352-24.912-22.272-39.472-22.272H187.072c-14.576 0-28.608 7.904-39.472 22.272-11.92 15.744-18.48 36.96-18.48 59.712V652.1759999999999c0 22.752 6.576 43.952 18.48 59.712 10.88 14.352 24.896 22.272 39.472 22.272l113.776 0.032 0.192-0.016c9.136 0 16.544 7.376 16.544 16.464s-7.408 16.448-16.544 16.448h-113.968c-25.248 0-48.672-12.56-65.936-35.392C104.928 710.2719999999999 96 682.016 96 652.1759999999999v-569.264c0-29.856 8.928-58.096 25.152-79.536 17.296-22.832 40.688-35.408 65.936-35.408h649.856c25.216 0 48.624 12.576 65.904 35.408C919.088 24.81600000000003 928 53.039999999999964 928 82.91200000000003V652.1759999999999c0 29.84-8.912 58.096-25.152 79.52z"  horiz-adv-x="1024" />

    
    <glyph glyph-name="wallet" unicode="&#58889;" d="M512-34c-268.416 0-388.144 87.504-388.144 283.744 0 155.312 129.232 324.48 288.08 377.12l201.872-0.256c157.584-52.544 286.336-221.664 286.336-376.864 0-196.24-119.728-283.744-388.144-283.744z m-91.952 607.648c-29.488-10.928-58.336-26.736-85.776-46.992a408.528 408.528 0 0 1-81.056-79.616c-23.504-30.544-41.872-63.104-54.64-96.8-12.944-34.128-19.504-67.936-19.504-100.496 0-41.504 6.096-77.008 18.16-105.6a157.296 157.296 0 0 1 51.552-66.4c25.008-18.784 58.496-33.28 99.488-43.056 44.736-10.656 99.84-16.064 163.744-16.064 63.92 0 119.008 5.408 163.712 16.064 41.024 9.776 74.464 24.288 99.488 43.056a157.488 157.488 0 0 1 51.616 66.4c12.048 28.592 18.144 64.128 18.144 105.6 0 32.56-6.56 66.368-19.52 100.496-12.768 33.712-31.136 66.272-54.64 96.8a409.312 409.312 0 0 1-81.04 79.616c-27.472 20.256-56.32 36.048-85.728 46.96l-183.04 0.336-0.96-0.304z m83.6-463.968c-20.16 0-36.528 15.632-36.528 34.848 0 2.224 0.224 4.464 0.72 6.752l1.248 6.096h-1.856v32.128l-72.32 0.064c-15.6 0-28.288 12-28.288 26.816 0 14.784 12.656 26.848 28.176 26.848h4.896v0.096h67.536V285.28h-70.304l-1.952 0.032c-15.632 0-28.336 12.064-28.336 26.848 0 14.816 12.656 26.848 28.176 26.848h4.72v0.064h60.64l1.056 3.808a9.28 9.28 0 0 0 1.888 3.808l2.896 3.504-78.464 74.816c-7.2 6.848-4.176 20.928 6.736 31.344 6.656 6.336 15.04 10.08 22.512 10.08 4.288 0 7.872-1.264 10.368-3.648l77.328-73.792 71.776 72.992c3.328 3.424 8.336 5.328 14.176 5.328 8.32 0 17.024-3.632 23.328-9.68 12.064-11.632 16.672-20 6.496-30.928l-79.552-77.552-0.848-3.904-0.88-4.592 5.248-1.472 66.72-0.128 1.52-0.096c15.568-0.096 28.16-12.128 28.16-26.816 0-14.72-12.56-26.72-27.984-26.848l-3.472-0.032h-69.456v-41.968h71.2l1.552-0.128c15.568-0.096 28.16-12.128 28.16-26.816 0-14.72-12.56-26.752-27.984-26.816l-72.928-0.064v-33.536l-0.368-1.44v-2.72a38.4 38.4 0 0 0 0.816-7.28c0-19.184-16.4-34.816-36.528-34.816z m-89.216 549.008l-63.84 91.456 0.24 0.8-0.192 3.248c-0.512 2.368-0.848 3.776-0.848 5.152 0 9.888 5.104 18.576 13.024 22.128l2.384 2c7.616 1.728 84.416 18.24 146.848 18.528h1.808c63.088 0 133.424-15.744 144.976-18.448l0.576-1.264 1.84-0.848c7.824-3.552 12.944-12.256 12.944-22.096 0-1.376-0.368-2.848-0.736-4.352l-0.4-1.568 0.848-3.664-64.256-91.072H414.432z m97.92 90.672c-22.608-0.096-49.744-2.56-80.768-7.248l-8.224-1.248 20.656-29.552h136.064l20.912 29.952-8.16 1.28c-29.52 4.528-56.048 6.832-78.928 6.832h-1.552z m0 0"  horiz-adv-x="1024" />

    
    <glyph glyph-name="integral" unicode="&#58890;" d="M469.824 65.74400000000003a569.76 569.76 0 0 0-62.304-3.504c-154.768 0-253.6 57.216-253.6 96.576 0 0.624-0.32 1.248-0.32 1.872 0 0.64 0.32 1.136 0.32 1.872v59.856c60.656-41.728 158.976-63.616 253.6-63.616a674.88 674.88 0 0 1 59.648 3.008v64.448a567.664 567.664 0 0 0-59.648-3.12c-154.768 0-253.6 57.12-253.6 96.464v63.728c60.656-41.712 158.976-63.728 253.6-63.728 19.888 0 39.856 1.264 59.648 3.008V360.48c0 9.232 1.568 18.368 4.384 27.104a604.256 604.256 0 0 0-64.032-3.504c-154.768 0-253.6 57.104-253.6 96.464V544.3199999999999c60.656-41.728 158.976-63.728 253.6-63.728 94.64 0 192.992 22 253.616 63.728v-48.864c14.496 1.376 29.376 2.24 44.8 2.24 5.04 0 9.984-0.112 14.912-0.352v144.064c0 104.336-161.456 160.688-313.312 160.688-151.808 0-313.232-56.368-313.232-160.688v-482.592c0-104.432 161.424-160.832 313.232-160.832 33.952 0 68.336 2.896 101.392 8.64-20.288 17.008-33.888 37.136-39.104 59.12zM407.536 737.76c154.816 0 253.616-57.104 253.616-96.336 0-39.488-98.8-96.592-253.616-96.592-154.768 0-253.6 57.104-253.6 96.592 0 39.232 98.832 96.336 253.6 96.336z m298.4-257.168c-127.552 0-223.76-55.488-223.76-128.704v-257.424c0-73.328 96.224-128.576 223.76-128.576 127.584 0 223.76 55.248 223.76 128.576V351.88800000000003c0 73.216-96.176 128.704-223.76 128.704z m164.08-386.128c0-25.6-65.488-64.208-164.08-64.208-98.64 0-164.128 38.608-164.128 64.208v39.632c40.288-24.608 97.888-39.632 164.128-39.632 66.176 0 123.808 15.136 164.08 39.632v-39.632z m0 128.832c0-25.616-65.488-64.336-164.08-64.336-98.64 0-164.128 38.736-164.128 64.336v39.632c40.288-24.736 97.888-39.632 164.128-39.632 66.176 0 123.808 14.896 164.08 39.632v-39.632z m-164.08 64.24c-98.64 0-164.128 38.608-164.128 64.352 0 25.616 65.488 64.352 164.128 64.352 98.592 0 164.08-38.736 164.08-64.352 0-25.744-65.488-64.352-164.08-64.352z"  horiz-adv-x="1024" />

    
    <glyph glyph-name="service" unicode="&#58891;" d="M512.016 695.424c-133.6 0-242.272-110.928-242.272-247.248s108.672-247.264 242.272-247.264 242.272 110.944 242.272 247.264-108.704 247.248-242.272 247.248z m0-452.112c-110.688 0-200.752 91.904-200.752 204.864 0 112.96 90.064 204.864 200.752 204.864s200.736-91.904 200.736-204.864c0-112.96-90.048-204.864-200.736-204.864z m234.432-7.152l-12.832 6.912-10.752-9.872C671.088 185.74400000000003 594.24 158.54399999999998 512 158.54399999999998c-82.256 0-159.088 27.2-210.848 74.656l-10.784 9.872-12.816-6.912c-105.936-57.2-150.56-126.064-159.168-245.6a21.088 21.088 0 0 1 20.72-22.768 20.96 20.96 0 0 1 20.688 19.648c7.248 100.656 40.32 155.6 124.896 204.416 58.736-48.288 140.64-75.712 227.296-75.712 86.64 0 168.544 27.44 227.28 75.712 84.544-48.816 117.648-103.76 124.88-204.4 0.848-11.68 10.72-20.56 22.24-19.6 11.456 0.848 20.032 11.024 19.184 22.704-8.576 119.504-53.216 188.4-159.12 245.6z m-511.328 113.104V535.904c30.256 130.144 142.944 221.936 277.44 221.936 133.072 0 244.64-89.904 276.336-217.792v-188.672c55.376 0 97.52 44.576 97.52 99.632a99.536 99.536 0 0 1-54.944 89.504C798.624 692.432 668.48 800.208 512.56 800.208c-155.76 0-285.856-107.616-318.784-259.392-32.96-15.984-55.504-50.128-55.504-89.824-0.016-55.04 42.448-101.728 96.848-101.728z m0 0"  horiz-adv-x="1024" />

    
    <glyph glyph-name="address" unicode="&#58892;" d="M269.744 336.01599999999996l204.992-251.024c10.304-12.928 23.728-19.328 37.232-19.328 13.456 0 26.96 6.4 37.184 19.328l205.008 251.024c1.856 2.384 3.376 4.992 4.896 7.568 33.808 47.344 53.728 104.816 53.728 166.816 0.048 161.6-134.64 292.608-300.816 292.608-166.128 0-300.848-131.024-300.848-292.624 0-61.936 19.84-119.344 53.6-166.624 1.568-2.688 3.072-5.328 5.024-7.744zM511.968 744.48c132.752 0 240.688-104.992 240.688-234.08 0-47.888-14.864-94.032-42.944-133.408l-1.52-2.16-1.312-2.208-1.008-1.664-193.904-237.504L318.08 370.91200000000003l-1.232 2.016-1.28 2.176-1.456 2.048a228.128 228.128 0 0 0-42.832 133.248c0.016 129.088 107.952 234.08 240.688 234.08z m0-351.168c66.512 0 120.336 52.4 120.336 117.04 0 64.656-53.824 117.056-120.336 117.056-66.448 0-120.336-52.4-120.336-117.056 0-64.608 53.888-117.04 120.336-117.04z m0 175.568c33.168 0 60.176-26.24 60.176-58.512 0-32.304-27.008-58.496-60.176-58.496s-60.176 26.208-60.176 58.496c0 32.272 27.008 58.512 60.176 58.512z m188.848-381.888c-14.608 2.256-28.784-7.424-31.136-21.568-2.368-14.144 7.744-27.44 22.576-29.664 120.992-18.352 152.064-47.136 153.216-53.04-3.552-18.032-111.312-65.84-333.536-65.84-222.208 0-330 47.808-333.52 65.664 1.168 5.632 29.152 32.416 138.064 50.864 14.832 2.528 24.672 15.952 22.016 30.096-2.672 14.144-16.688 23.424-31.536 20.976-83.44-14.24-182.896-43.408-182.896-101.856 0-93.008 253.712-117.648 387.872-117.648 134.24 0 388 24.528 388 117.648 0 61.36-108.288 90.592-199.12 104.368z"  horiz-adv-x="1024" />

    
    <glyph glyph-name="more" unicode="&#58893;" d="M512 802.192c-230.544 0-418.128-187.584-418.128-418.224 0-230.48 187.584-418.16 418.128-418.16s418.128 187.584 418.128 418.16C930.256 614.608 742.624 802.192 512 802.192z m0-777.68c-198.256 0-359.52 161.232-359.52 359.456C152.48 582.2239999999999 313.744 743.456 512 743.456c198.192 0 359.504-161.248 359.504-359.488 0-198.128-161.248-359.456-359.504-359.456zM331.056 439.024a55.072 55.072 0 0 1-55.024-55.056 54.992 54.992 0 0 1 55.024-55.008 55.072 55.072 0 0 1 55.056 55.008 55.088 55.088 0 0 1-55.056 55.056z m180.944 0a55.04 55.04 0 1 1 0.064-110.08 55.04 55.04 0 0 1-0.064 110.08z m181.008 0a55.072 55.072 0 0 1-55.024-55.056 55.04 55.04 0 1 1 55.024 55.056z"  horiz-adv-x="1024" />

    
    <glyph glyph-name="friend" unicode="&#58894;" d="M144.752-33.696000000000026c-11.552 0-20.944 9.152-20.944 20.448 0 221.552 184.464 401.792 411.152 401.792 96.176 0.128 174.128 76.288 174.208 170.272-0.112 93.968-78.032 170.112-174.208 170.24-96.128-0.096-174.064-76.272-174.192-170.24 0-52.784 24.368-101.664 66.944-134.176 5.888-4.496 8.88-11.712 7.808-18.944a20.464 20.464 0 0 0-12.864-16.096 21.008 21.008 0 0 0-20.672 2.848c-51.264 40.4-91.36 97.568-98.032 159.84C291.616 668.048 392.848 802.064 512 802.064c119.136 0 258.752-108.592 258.752-225.008 0-116.416-107.312-256.048-226.4-257.152-202.272-1.904-362.144-156.224-369.616-345.328-0.432-11.248-18.432-8.272-29.984-8.272z m565.36 0c-8.224 0-15.92 3.12-21.728 8.848l-136.32 133.232a104.736 104.736 0 0 0-31.968 75.344c0 28.512 11.328 55.344 32.016 75.472 41.216 40.336 113.184 40.304 154.32 0l3.664-3.616 3.728 3.616c41.104 40.304 113.072 40.336 154.32 0a104.704 104.704 0 0 0 32.016-75.472 104.48 104.48 0 0 0-32.016-75.408l-136.272-133.232c-5.76-5.632-13.6-8.816-21.76-8.784zM629.28 249.56799999999998c-17.968 0-39.888-13.648-52.608-26.128-12.656-12.32-13.536-24.032-8.288-40.704 5.824-18.432 28.992-43.456 40.64-55.696l97.04-96.464 132.496 106.64c12.72 12.32-3.072 36.656-3.072 54.096 0 17.616 12.704 19.712 0 32.144-25.472 24.96-71.632 24.912-97.04 0l-6.56-4.368c-7.024-14.464-31.376-43.536-43.52-32.08l-14.656 36.448c-12.592 12.4-26.56 26.176-44.432 26.112z m12.128-26.128"  horiz-adv-x="1024" />

    
    <glyph glyph-name="help" unicode="&#58895;" d="M512 732.4159999999999c201.504 0 348.416-146.96 348.416-348.416 0-49.232-15.76-94.336-34.864-139.376-18.432-43.504-21.696-85.2-55.28-118.848a365.392 365.392 0 0 0-116.256-78.48c-44.992-19.088-92.8-11.712-142.032-11.712-49.2 0-59.504-19.088-104.512 0-43.52 18.416-105.728 70.896-139.36 104.528-33.648 33.632-51.248 61.008-69.664 104.512-19.056 45.04-34.832 90.144-34.832 139.376 0 201.472 146.88 348.416 348.384 348.416m0 69.68c-230.528 0-418.096-187.504-418.096-418.032 0-230.48 187.568-418.16 418.096-418.16s418.096 187.664 418.096 418.16C930.096 614.592 742.528 802.096 512 802.096z m27.92-648.832h-61.568v64.752h61.568v-64.752z m100.608 291.024c-6.56-13.744-20.528-30.896-41.888-51.424-21.376-20.512-35.568-35.12-42.528-43.808-6.976-8.656-12.288-19.024-15.856-31.072-3.6-12.064-5.184-28.256-4.752-48.56h-55.856c0 23.664 1.856 42.624 5.712 56.816 3.776 14.176 9.504 26.528 17.136 37.104 7.584 10.576 21.328 26.16 41.248 46.672 19.84 20.528 32.672 35.424 38.384 44.752 5.712 9.296 8.56 23.168 8.56 41.6 0 18.368-6.576 34.688-19.664 48.864-13.12 14.128-32.16 21.28-57.104 21.28-56.304 0-84.416-33.472-84.416-100.32h-55.856c0.816 30.464 4.432 53.616 10.784 69.504 6.352 15.888 16.512 30.016 30.496 42.528a136.176 136.176 0 0 0 46.64 27.6 164.944 164.944 0 0 0 54.24 8.896c38.496 0 70.544-11.312 96.176-33.968 25.6-22.656 38.384-52.784 38.384-90.464-0.016-16.912-3.28-32.272-9.84-46z m0 0"  horiz-adv-x="1024" />

    
    <glyph glyph-name="vip" unicode="&#58896;" d="M926.848 489.008L740.944 790.8a23.312 23.312 0 0 1-19.776 11.056H302.864c-8.048 0-15.552-4.208-19.776-11.056L97.168 489.008a23.184 23.184 0 0 1 1.728-26.736l395.056-487.52a23.248 23.248 0 0 1 36.112 0l395.024 487.52a23.2 23.2 0 0 1 1.76 26.736zM512 26.192000000000007L145.36 478.688 315.872 755.424h392.336l170.416-276.72L512 26.192000000000007zM297.696 472.336a23.28 23.28 0 0 1-32.688 3.44 23.2 23.2 0 0 1-3.44-32.64l232.4-286.784c4.4-5.472 11.024-8.592 18.048-8.592 7.024 0 13.664 3.12 18.064 8.592l232.384 286.784a23.232 23.232 0 0 1-36.128 29.2L512 207.84000000000003 297.696 472.336z"  horiz-adv-x="1024" />

    
    <glyph glyph-name="invoice" unicode="&#58897;" d="M784.944 801.904H239.072c-60.64 0-110.128-46.416-110.128-103.68v-732.128h51.04l113.344 78.944 63.84-78.944h46.288l110.16 78.944 102.128-78.944h52.672l63.872 78.944 113.312-78.944h49.44V698.2239999999999c0 57.264-49.424 103.68-110.096 103.68z m54.272-783.6l-108.56 77.808-92.56-106.832-126.112 106.832-137.248-105.264-81.376 105.264-110.144-80.496V696.656c0 29.424 23.936 52.656 54.272 52.656h547.456c30.336 0 54.288-23.232 54.288-52.656v-678.352z m-108.32 574.656h-474.24c-10.096 0-18.272-8.672-18.272-19.344s8.16-19.344 18.272-19.344h474.24c10.112 0 18.272 8.672 18.272 19.344s-8.16 19.344-18.272 19.344zM694.4 438.192H293.104c-10.064 0-18.224-8.672-18.224-19.344 0-10.72 8.16-19.36 18.224-19.36H694.4c10.064 0 18.272 8.64 18.272 19.36 0 10.672-8.208 19.344-18.272 19.344z m0-154.8H293.104c-10.064 0-18.224-8.672-18.224-19.36 0-10.672 8.16-19.344 18.224-19.344H694.4c10.064 0 18.272 8.672 18.272 19.344 0 10.688-8.208 19.36-18.272 19.36z"  horiz-adv-x="1024" />

    
    <glyph glyph-name="clear" unicode="&#58898;" d="M890.528 478.272l-0.064-0.032-173.456 74.592 57.456 124.752c14.4 31.152-1.28 70.608-33.536 84.448l-80.672 34.704c-32.256 13.92-73.072-1.248-87.424-32.432l-57.52-124.688-181.504 78.064c-32.256 13.904-73.072-1.28-87.424-32.432l-35.968-77.984c-9.856-21.408-5.312-46.544 8.832-64.8L104.464 293.39200000000005a102.4 102.4 0 0 1-2.656-81.76c10.56-26.48 31.664-47.76 58.624-59.056l411.472-176.96a112.704 112.704 0 0 1 84.576-2.496c27.408 10.144 49.456 30.528 61.104 56.56l114.832 249.136c23.488 2.064 45.872 15.648 55.776 37.056l35.856 77.952c14.416 31.136-1.296 70.592-33.52 84.448zM677.232 46.99199999999996c-14.336-31.136-55.168-46.32-87.424-32.416l-60.512 26.032 62.848 136.384c5.408 11.696 0.944 22.992-11.136 28.176-8.096 3.44-23.76 0.848-29.152-10.784l-62.88-136.432-84.72 36.448 62.832 136.4c5.44 11.68 0.944 22.96-11.12 28.144-12.144 5.216-23.776 0.88-29.168-10.832l-62.864-136.368-88.704 38.16 62.8 136.384c5.424 11.696 0.912 22.96-11.136 28.176-8.112 3.504-23.792 0.912-29.168-10.784l-62.864-136.4-56.464 24.288c-32.256 13.872-47.968 53.328-33.568 84.464v-0.048l111.296 241.6 532.48-228.912-111.376-241.68z m206.464 364.176l-35.92-77.984c-5.376-11.584-16.96-15.952-29.024-10.816L261.536 562.0799999999999c-11.728 5.296-16.064 16.384-10.736 27.936l35.904 77.92c5.36 11.696 17.024 16.032 29.136 10.848l221.936-95.44 75.408 163.664c5.392 11.728 17.056 16 25.136 12.576l80.656-34.704c12.112-5.216 16.56-16.48 11.168-28.176v-0.016l-75.408-163.68 217.776-93.648c12.064-5.248 16.576-16.496 11.184-28.192z"  horiz-adv-x="1024" />

    
    <glyph glyph-name="collect" unicode="&#58899;" d="M512.08 752.3679999999999c20.448 0 39.328-12.432 48.16-31.76l84.752-179.52 189.68-35.104c19.968-3.12 36.544-17.904 42.832-38.576 6.32-20.16 0.976-42.992-13.632-57.904l-136.704-134.32 34.56-193.008c3.504-21.456-4.896-43.152-21.52-55.744a52.256 52.256 0 0 0-31.408-10.848 52.832 52.832 0 0 0-25.024 6.448l-171.76 89.072-173.296-89.28a49.328 49.328 0 0 0-23.856-5.968 53.408 53.408 0 0 0-32.288 10.768c-16.32 12.256-24.72 34.032-21.328 55.248l35.728 193.312-136.304 132.624a59.056 59.056 0 0 0-13.92 58.448c6.144 20.448 22.752 35.312 43.152 38.528l189.12 36.176 84.816 179.808c9.248 19.52 27.76 31.6 48.24 31.6m0 52.624c-41.056 0-77.728-23.648-95.712-61.696l-73.408-155.632-162.176-31.024c-40.112-6.688-72.352-35.424-84.336-75.136a110.88 110.88 0 0 1 27.6-111.392l116.128-113.024-30.64-165.616c-6.64-41.616 9.76-83.088 41.52-106.944a105.456 105.456 0 0 1 63.824-21.232c17.184 0 33.952 4.16 48.528 12.112l148.512 76.496 147.648-76.56a104.208 104.208 0 0 1 49.2-12.336 104.736 104.736 0 0 1 63.328 21.664c32.256 24.4 48.224 65.168 41.456 106.16l-29.744 166.336 116.816 114.848c28.784 29.408 39.024 72.752 26.976 111.216-11.968 39.408-44.16 68.096-84.032 74.672L680.944 588l-73.232 155.168c-17.056 37.328-54.704 61.824-95.632 61.824z m0 0"  horiz-adv-x="1024" />

    
    <glyph glyph-name="moveWing" unicode="&#58900;" d="M909.248 501.744h-148.976c13.696 0-59.888 9.712-49.664 0l-2.56-5.376a284.16 284.16 0 0 0 41.472 5.104 39.2 39.2 0 0 1-8.096-5.728c-13.28-6.336-28.224-15.92-36.368-19.6a55.328 55.328 0 0 1-9.008-4.992l12 25.2A303.888 303.888 0 0 1 640 474.48c-1.456 20.112 1.408 38.64-9.408 57.6-23.024 40.32-95.664 99.936-178.4 99.936-80.464 0-148.672-61.152-176.272-97.344-14.256-18.688-14.256-38.736-16.768-60.192-41.68 20.72-84.288 39.2-115.472 39.2-14.4 0-28.256-4.016-41.936-13.744-46.608-33.136 56.032-241.824 104.512-296.08 39.68-44.496 64.528-66.976 244.176-66.976 71.344 0 123.424-2.048 160.368 0.048 0.176 0 0.32-0.048 0.48-0.048h223.456c13.696 0 24.832 11.664 24.832 26.048 0 14.4-11.12 26.064-24.832 26.064H685.76c0.048 1.888-23.744 0.624-60.768 0h-13.712c-0.672 0-1.312-0.16-1.968-0.208l-7.056-0.064c-18-6.288-52.096 1.12-164.752 0.272-168.848-1.264-170.304 14.608-203.504 46.752-48.192 46.672-102.64 195.008-101.76 238.736 0.048 3.248 17.792 0 21.136 0 18.064 0 35.152-21.424 66.176-36.944 54.64-27.392 129.456-53.072 230.032-53.072 92.304 0 170.352 18.336 229.504 51.104l11.728 24.656c1.568-2.544 5.392-4.784 11.632-6.576-6.8-6.752-13.872-12.832-21.2-16.976-0.688-0.384-1.456-0.72-2.16-1.104l-117.44-246.576c14.384-0.288 27.984-0.336 40.608-0.272 7.264 2.544 12 7.248 18.096 15.744-7.856-7.424 14.64 34.368 15.744 36.656 27.888 56.288 36.576 74.256 49.824 102.576 0.832-13.616 11.504-24.4 24.672-24.4h124.144c13.696 0 24.832 11.664 24.832 26.048 0 14.4-11.12 26.064-24.832 26.064h-124.144a24 24 0 0 1-13.808-4.4c8.88 19.056 20.544 44.112 38.624 82.528 7.36-0.24 15.616-0.24 24.848 0.064h148.976c13.728 0 24.832 11.664 24.832 26.048 0.016 14.416-11.072 26.096-24.816 26.096zM449.6 419.84c-62.944 0-114.224 16.112-157.744 35.024 1.76 3.056 2.88 6.576 3.152 10.368 0.976 13.808 6.4 27.296 16.064 40.016 20.976 27.536 74.928 81.76 138.528 81.76 66.928 0 127.6-53.152 142.448-79.136 7.824-13.664 11.936-27.632 12.288-41.536 0.128-4.08 1.28-7.904 3.2-11.2-46.352-19.008-99.088-35.296-157.936-35.296z"  horiz-adv-x="1024" />

    
    <glyph glyph-name="advice" unicode="&#58901;" d="M511.968 75.44000000000005c-214.048 0-388.112 163.008-388.112 363.36 0 200.368 174.064 363.392 388.112 363.392s388.176-163.008 388.176-363.392c0-117.616-61.264-228.48-163.824-296.56l-2.336-1.552 0.08-174.88-148 116.24-2.16-0.368a417.28 417.28 0 0 0-71.936-6.24z m108.72 51.232l67.728-69.552-5.664 133.872c108.416 58.176 162.816 142.08 155.296 257.328-11.616 177.76-128.992 289.072-310.512 289.52-187.728 0.464-320.176-83.008-341.6-257.328-21.856-177.968 132.384-345.168 326.032-334.896 29.2 1.552 53.456 14.576 77.664 13.232l31.056-32.176z m-266.688 244.16h312.096c7.968 0 14.4-9.872 14.4-22.032v-9.632c0-12.16-6.432-22.032-14.4-22.032H354c-7.92 0-14.4 9.872-14.4 22.032V348.79999999999995c0 12.16 6.48 22.032 14.4 22.032zM303.52 545.696h413.056c10.72 0 19.472-9.888 19.472-22.032v-9.648c0-12.16-8.752-22.032-19.472-22.032H303.52c-10.688 0-19.408 9.872-19.408 22.032v9.648c0 12.16 8.72 22.032 19.408 22.032z m0 0"  horiz-adv-x="1024" />

    
    <glyph glyph-name="coupons" unicode="&#58902;" d="M929.984 417.408L897.552 745.392a25.456 25.456 0 0 1-23.264 24.048L545.52 801.984a25.376 25.376 0 0 1-20.464-7.344L137.456 406.992c-58.096-58.128-58.096-93.568 0-151.696l245.92-245.952c26.064-26.128 48.976-43.44 75.872-43.44 26.944 0 49.76 17.376 75.824 43.44l387.536 387.584c5.424 5.392 8.112 12.912 7.376 20.48z m-430.832-372.16c-12.288-12.24-29.712-28.464-39.888-28.464-10.224 0-27.664 16.24-39.904 28.464L173.44 291.23199999999997c-38.016 38.048-38.016 41.76 0 79.776L552.512 750.16l296.336-29.328 29.328-296.448-379.024-379.136zM359.92 492.16l-115.584-115.584c-29.184-29.248-37.168-49.008-3.76-82.464a12.688 12.688 0 0 1 17.936 0 12.768 12.768 0 0 1 0 18.016c-19.888 19.936-19.648 22.976 3.824 46.432l115.584 115.6a12.72 12.72 0 0 1-18 18z m36.192 36.208l-10.336-10.352a12.72 12.72 0 0 1 17.984-17.984l10.336 10.368a12.704 12.704 0 1 1-17.984 17.968z m301.616 149.936a105.584 105.584 0 0 1-105.472-105.44 105.6 105.6 0 0 1 105.472-105.504c58.144 0 105.424 47.328 105.424 105.504a105.552 105.552 0 0 1-105.424 105.44z m0-160.048a54.56 54.56 0 0 0-54.56 54.576 54.624 54.624 0 0 0 54.56 54.608 54.592 54.592 0 0 0 0-109.184z m0 0"  horiz-adv-x="1024" />

    
    <glyph glyph-name="wing" unicode="&#58903;" d="M923.328 515.6c-12.032 11.072-26.08 15.648-42.208 15.648-35.296 0-90.896-20.624-145.04-44.656-1.696 22.928 1.664 44.016-11.056 65.632-27.088 45.92-112.56 113.872-209.904 113.872-94.72 0-175.008-69.68-207.424-110.928-16.8-21.28-16.768-44.128-19.712-68.576-49.088 23.616-99.232 44.656-135.904 44.656-16.96 0-33.264-4.576-49.328-15.648C47.856 477.824 168.64 240 225.68 178.20799999999997c46.688-50.688 75.936-76.304 287.328-76.304 202.944 0 240.656 25.616 287.344 76.304 57.04 61.792 172.064 292.16 122.976 337.392z m-593.232-39.568c1.12 15.744 7.536 31.104 18.912 45.6 24.688 31.376 88.128 93.168 163.008 93.168 78.752 0 150.176-60.576 167.632-90.176 9.184-15.584 14.048-31.488 14.448-47.328 0.144-4.656 1.52-9.024 3.744-12.8C643.328 442.864 581.232 424.32 512 424.32c-74.032 0-134.416 18.384-185.6 39.888 2.032 3.488 3.36 7.504 3.696 11.824zM761.76 214.96000000000004c-32.96-35.68-61.536-66.992-255.648-67.344-194.4-0.384-208.736 30.336-247.808 66.96-56.688 53.168-120.72 222.192-119.728 272.016 0.048 3.68 20.976 0 24.896 0 21.248 0 41.344-24.4 77.856-42.096C305.584 413.264 393.664 384 512.016 384c109.888 0 202.704 21.344 272.608 59.504 38.96 21.312 80.08 55.472 100.848 43.088 12.928-58.848-66.192-223.92-123.712-271.632z m-0.784-10.48"  horiz-adv-x="1024" />

    
    <glyph glyph-name="foot" unicode="&#58904;" d="M276.48 609.6320000000001c11.776-19.696 29.024-31.92 51.264-36.336 7.648-1.472 15.072-1.472 22.128-0.16 19.344 3.632 35.072 17.168 40.048 36.496 2.864 10.896 1.888 22.736-1.984 34.224a83.296 83.296 0 0 1 42.928-26.08c9.68-2.448 19.488-2.72 28.736-0.96 5.728 1.024 11.2 2.912 16.304 5.408a56.256 56.256 0 0 1 28.272 32.384 64.16 64.16 0 0 1 2.672 27.552c5.216-16.992 13.376-30.816 25.792-42.464 19.44-18.208 45.344-25.968 71.168-21.12a82.72 82.72 0 0 1 44.368 24c17.648 18.288 27.04 44.16 25.824 70.752-1.216 26.704-13.088 51.536-32.4 68.256-19.44 16.624-44.576 23.632-69.008 19.04a83.28 83.28 0 0 1-49.568-30.144c-16.464-20.848-23.2-44.688-20.112-70.912a83.28 83.28 0 0 1-6.464 14.048c-11.408 19.6-30.048 33.984-51.008 39.488a69.36 69.36 0 0 1-30.912 1.376c-23.28-4.384-40.88-21.088-46.08-43.776-2.928-12.832-1.68-25.76 3.44-39.92-10.72 11.712-24.512 20.08-39.44 23.216a60.08 60.08 0 0 1-24.224 0.464c-21.888-4.112-37.504-20.048-40.704-41.824-2.288-13.712 0.464-27.152 8.576-42.368l0.384-0.64zM549.76 752c7.664 9.616 18.128 16.144 29.424 18.208 13.856 2.624 28.384-1.584 39.76-11.376 27.04-23.248 29.104-69.648 4.24-95.328a49.472 49.472 0 0 0-26.176-14.368c-14.608-2.688-29.504 1.872-40.928 12.512-9.968 9.328-16.016 20.432-19.488 36.032-3.68 20.608 0.544 38.448 13.168 54.32z m-148.608-47.616c2.448 10.832 9.712 18.128 19.984 19.984 4.816 0.848 9.792 0.576 15.264-0.848 12.16-3.152 23.744-12.416 30.8-24.544 6.928-11.872 8.8-24.736 5.2-35.296-4.512-13.52-17.712-20.048-32.8-16.336-15.264 3.92-26.384 12.784-33.84 27.344-5.36 11.68-6.704 20.64-4.608 29.696z m-100.656-56.496v0.304c0.768 5.04 3.6 13.824 14.416 15.776 3.216 0.544 6.688 0.544 10.176-0.304h0.192c9.872-2.032 19.584-8.96 26.016-18.56 6.128-9.264 8.368-19.44 6.208-28-2.528-10.016-12.048-15.504-23.072-13.36-12.352 2.416-21.68 9.136-28.656 20.624-4.896 9.264-6.496 16.336-5.28 23.52zM864.368 162.08000000000004c-9.328 24.832-24.4 42.192-37.904 55.92-11.488 11.76-27.696 23.248-48.048 34.08l-1.2 0.656a866.208 866.208 0 0 1-15.456 7.744l-0.608 0.272c-15.056 7.472-30.608 15.328-40.592 24.288-20.624 18.592-29.12 39.008-26.672 64.304 0.464 5.152 3.664 13.648 6.416 21.2 3.264 8.608 6.976 18.32 8.544 27.84 5.76 32.848 4.256 63.664-4.512 91.488-8.96 28.352-25.248 53.12-48.432 73.568-21.392 18.864-42.32 32.192-64.096 40.784-22.336 8.768-45.616 12.608-71.04 11.664-39.52-1.408-78.16-12.896-114.896-34.064-44.848-25.968-78.704-54.528-103.584-87.568-23.84-31.104-37.984-64.128-42.4-98.32-4.544-34.16 0.656-69.712 15.248-105.584l0.112-0.176c2.528-5.984 5.28-11.776 8.112-17.728l3.744-8.224 0.384-0.656c21.664-38.832 50.24-73.936 87.2-107.552 58.784-53.392 117.04-98.128 178.032-136.688 27.312-17.36 53.712-30.512 80.48-40.336 35.328-13.056 71.52-16.336 107.52-9.616a230.32 230.32 0 0 1 50.544 15.856c40.88 18.128 67.264 47.808 78.48 88.032 7.84 28.592 6.032 58.368-5.376 88.816z m-35.888-78.688c-8.032-28.768-26.24-49.2-55.728-62.304-13.664-6.064-27.2-10.336-40.48-12.8-27.808-5.104-55.888-2.608-83.52 7.584h-0.08c-23.84 8.672-47.408 20.528-72.128 36.128-58.896 37.264-115.152 80.464-172.208 132.208-33.36 30.336-59.072 62-78.688 96.72l-3.264 7.184c-2.672 5.504-5.12 10.832-7.344 16.048-24.336 59.584-16.864 115.76 21.776 167.312 21.472 28.464 51.344 53.584 91.328 76.64 30.336 17.552 62 26.992 94.144 28.192 38.448 1.408 69.552-11.008 104.032-41.52 35.648-31.568 49.504-76.352 40.176-129.856v-0.192c-1.04-5.984-4.064-13.904-6.704-20.832l-0.112-0.192c-3.744-10.176-7.616-20.624-8.544-30.528-3.6-37.248 9.792-69.712 39.68-96.608 14.32-12.896 32.592-21.952 50.24-30.72l1.184-0.576c4.912-2.336 9.712-4.752 14.336-7.168l0.96-0.464c16.384-8.688 29.008-17.552 37.504-26.24l0.112-0.112c11.104-11.296 22.32-24.16 29.008-42.096 8.576-22.864 9.984-44.992 4.32-65.808z m-558.048 365.76v0.192c-0.656 15.664-8.96 31.552-22.88 43.52a79.088 79.088 0 0 1-8.496 6.336c5.392-1.488 10.944-2.448 16.672-2.8 4.896-0.304 9.712 0 14.24 0.816 22.032 4.128 38.528 20.656 40.608 42.512 1.632 16.512-4.896 34.256-17.904 48.624-13.552 14.944-32.112 24.272-51.056 25.664h-0.208a61.92 61.92 0 0 1-16-0.848c-24.48-4.576-40.816-23.808-40.624-47.888 0.08-13.792 4.976-26.512 15.264-39.952l0.272-0.384c5.392-6.528 11.424-12.016 18.128-16.4a71.312 71.312 0 0 1-21.232 2.688 54.624 54.624 0 0 1-9.152-0.928c-26.016-4.864-41.632-25.584-38.064-50.416 1.888-12.48 7.92-23.776 18.976-35.264l0.432-0.496c15.296-14.64 34.32-21.92 54.976-20.896a55.68 55.68 0 0 1 8.112 0.928c22.944 4.272 38.512 22.208 37.936 44.992z m-52.304 116.304c-0.08 9.36 4.992 15.696 13.968 17.28a28.96 28.96 0 0 0 7.248 0.272c9.904-0.736 20.352-6.256 28-14.64 7.264-8.032 10.912-17.36 10.176-25.776-0.96-9.792-8.848-15.872-19.696-15.328-12.336 0.848-22.336 6.144-30.72 16.24-6.224 8.16-8.896 14.768-8.976 21.952z m4.544-131.232c-11.04-0.576-20.576 3.168-29.136 11.2-6.4 6.816-9.504 12.304-10.448 18.56-1.232 8.48 3.024 14.288 11.664 15.856 1.04 0.208 2.288 0.304 3.776 0.384h0.192c8.752 0.368 18.56-3.456 26.288-10.192 7.232-6.256 11.744-14.352 12.128-21.664 0.224-8.56-5.056-13.776-14.464-14.144z"  horiz-adv-x="1024" />

    
    <glyph glyph-name="editInfo" unicode="&#58905;" d="M913.184 520.752c-14.784 0-20.24-19.36-19.744-35.088v-406.48c0.992-33.008-2.72-67.728-45.152-67.728H193.36c-41.904-13.12-70.944 16.128-67.744 67.728V688.928c-3.808 48.368 11.072 73.392 67.744 67.728h429.088c14.64 0 21.968 2.352 21.632 17.76-0.32 14.912-12.192 27.408-26.816 27.408H187.936c-59.536-0.464-107.472-50.048-107.472-111.904v-606.112c0-65.056 49.984-117.648 110.896-117.648h655.488c61.44 0 93.84 48.448 91.744 113.008V485.664c-0.512 15.728-10.608 35.088-25.408 35.088z m-588.928-170.88c-1.008-1.968-2.528-4.448-3.024-6.432l-55.696-185.296c-2-7.552 0.112-15.632 5.84-21.184 4.176-4.048 9.872-6.048 15.568-6.048 2.08 0 4.144 0.48 6.208 0.992l190.608 55.984a15.744 15.744 0 0 1 6.672 3.008l443.728 438.848a31.2 31.2 0 0 1 9.408 23.328 33.2 33.2 0 0 1-10.912 23.312l-117.072 107.2c-13.472 12.496-35.168 12.496-47.952 0l-441.824-431.68-1.552-2.032zM792.768 748.896l103.6-96.336-34.512-34.032-103.616 96.56 34.528 33.808z m-64.176-62.832l103.616-96.8L491.52 253.12l-103.648 99.248 340.72 333.696zM455.36 223.51999999999998l-136.304-39.664 39.392 132.704 96.912-93.04z"  horiz-adv-x="1024" />

    
    <glyph glyph-name="back" unicode="&#58906;" d="M691.92-34.89599999999996c-6.096 0-12.224 2.32-16.88 7.04L335.648 316.64c-36.576 37.12-36.576 97.648 0 134.768L675.04 795.792a23.616 23.616 0 0 0 33.744 0 24.448 24.448 0 0 0 0-34.24L369.376 417.2a47.6 47.6 0 0 1 0-66.448L708.8 6.399999999999977a24.48 24.48 0 0 0 0-34.256c-4.672-4.608-10.8-7.04-16.88-7.04z m0 0"  horiz-adv-x="1024" />

    


  </font>
</defs>
</svg>
